<?xml version="1.0" encoding="UTF-8"?>
<svg xmlns="http://www.w3.org/2000/svg" xmlns:xlink="http://www.w3.org/1999/xlink" viewBox="0 0 26 26" version="1.1" fill="#666666" width="26px" height="26px">
<g id="surface1" fill="#666666">
<path style=" " d="M 8.8125 0 C 8.347656 0.0507813 7.917969 0.261719 7.59375 0.59375 L 3.59375 4.59375 C 3.21875 4.964844 3.003906 5.472656 3 6 L 3 20 C 3.003906 20.527344 3.21875 21.035156 3.59375 21.40625 L 7.59375 25.40625 C 7.964844 25.78125 8.472656 25.996094 9 26 L 17 26 C 17.527344 25.996094 18.035156 25.78125 18.40625 25.40625 L 22.40625 21.40625 L 19.59375 18.59375 L 16.1875 22 L 9.8125 22 L 7 19.1875 L 7 6.8125 L 9.8125 4 L 16.1875 4 L 19.59375 7.40625 L 22.40625 4.59375 L 18.40625 0.59375 C 18.035156 0.21875 17.527344 0.00390625 17 0 L 9 0 C 8.9375 -0.00390625 8.875 -0.00390625 8.8125 0 Z " fill="#666666"/>
</g>
</svg>
