<?xml version="1.0" encoding="UTF-8"?>
<svg xmlns="http://www.w3.org/2000/svg" xmlns:xlink="http://www.w3.org/1999/xlink" viewBox="0 0 50 50" version="1.1" fill="#666666" width="100px" height="100px">
<g id="surface1" fill="#666666">
<path style=" " d="M 6 0 C 2.699219 0 0 2.699219 0 6 C 0 9.300781 2.699219 12 6 12 C 7.292969 12 8.488281 11.578125 9.46875 10.875 L 17.25 18.6875 C 15.839844 20.410156 15 22.605469 15 25 C 15 26.980469 15.597656 28.820313 16.59375 30.375 L 10.03125 35.5625 C 8.964844 34.59375 7.546875 34 6 34 C 2.699219 34 0 36.699219 0 40 C 0 43.300781 2.699219 46 6 46 C 9.300781 46 12 43.300781 12 40 C 12 38.953125 11.726563 37.984375 11.25 37.125 L 17.84375 31.9375 C 19.664063 33.8125 22.1875 35 25 35 C 26.328125 35 27.589844 34.753906 28.75 34.28125 L 31.375 39.25 C 29.941406 40.347656 29 42.0625 29 44 C 29 47.300781 31.699219 50 35 50 C 38.300781 50 41 47.300781 41 44 C 41 40.699219 38.300781 38 35 38 C 34.347656 38 33.714844 38.117188 33.125 38.3125 L 30.5 33.34375 C 32.386719 32.097656 33.828125 30.226563 34.53125 28.03125 L 38 28.75 C 37.996094 28.832031 38 28.917969 38 29 C 38 32.300781 40.699219 35 44 35 C 47.300781 35 50 32.300781 50 29 C 50 25.699219 47.300781 23 44 23 C 41.464844 23 39.28125 24.578125 38.40625 26.8125 L 34.9375 26.0625 C 34.972656 25.714844 35 25.355469 35 25 C 35 21.066406 32.691406 17.660156 29.375 16.03125 L 30.90625 11.90625 C 31.257813 11.96875 31.632813 12 32 12 C 35.300781 12 38 9.300781 38 6 C 38 2.699219 35.300781 0 32 0 C 28.699219 0 26 2.699219 26 6 C 26 8.214844 27.234375 10.148438 29.03125 11.1875 L 27.5 15.34375 C 26.695313 15.132813 25.867188 15 25 15 C 22.605469 15 20.410156 15.839844 18.6875 17.25 L 10.875 9.46875 C 11.578125 8.488281 12 7.292969 12 6 C 12 2.699219 9.300781 0 6 0 Z M 6 2 C 8.222656 2 10 3.777344 10 6 C 10 8.222656 8.222656 10 6 10 C 3.777344 10 2 8.222656 2 6 C 2 3.777344 3.777344 2 6 2 Z M 32 2 C 34.222656 2 36 3.777344 36 6 C 36 8.222656 34.222656 10 32 10 C 29.777344 10 28 8.222656 28 6 C 28 3.777344 29.777344 2 32 2 Z M 25 17 C 29.433594 17 33 20.574219 33 25 C 33 29.433594 29.433594 33 25 33 C 20.570313 33 17 29.433594 17 25 C 17 22.847656 17.84375 20.90625 19.21875 19.46875 C 19.300781 19.40625 19.375 19.332031 19.4375 19.25 C 20.875 17.859375 22.832031 17 25 17 Z M 44 25 C 46.222656 25 48 26.777344 48 29 C 48 31.222656 46.222656 33 44 33 C 41.777344 33 40 31.222656 40 29 C 40 26.777344 41.777344 25 44 25 Z M 6 36 C 8.222656 36 10 37.777344 10 40 C 10 42.222656 8.222656 44 6 44 C 3.777344 44 2 42.222656 2 40 C 2 37.777344 3.777344 36 6 36 Z M 35 40 C 37.222656 40 39 41.777344 39 44 C 39 46.222656 37.222656 48 35 48 C 32.777344 48 31 46.222656 31 44 C 31 42.484375 31.828125 41.179688 33.0625 40.5 C 33.09375 40.492188 33.125 40.480469 33.15625 40.46875 C 33.167969 40.460938 33.175781 40.445313 33.1875 40.4375 C 33.207031 40.429688 33.230469 40.417969 33.25 40.40625 C 33.777344 40.152344 34.371094 40 35 40 Z " fill="#666666"/>
</g>
</svg>
