<?xml version="1.0" encoding="UTF-8"?>
<svg width="92px" height="84px" viewBox="0 0 92 84" version="1.1" xmlns="http://www.w3.org/2000/svg" xmlns:xlink="http://www.w3.org/1999/xlink">
    <!-- Generator: Sketch 45.1 (43504) - http://www.bohemiancoding.com/sketch -->
    <title>iota-logopic</title>
    <desc>Created with Sketch.</desc>
    <defs></defs>
    <g id="Page-1" stroke="none" stroke-width="1" fill="none" fill-rule="evenodd">
        <g id="Start-page" transform="translate(-330.000000, -235.000000)" fill-rule="nonzero" fill="#000">
            <g id="iota-logopic" transform="translate(330.000000, 235.000000)">
                <g id="Group" transform="translate(79.744892, 53.291333)">
                    <polygon id="Shape" points="0.248384608 0.300989059 0.249491744 0.306300369 0.249491744 0.300989059"></polygon>
                </g>
                <g id="Group" transform="translate(38.281009, 44.594413)">
                    <polygon id="Shape" points="0.0299018389 0.226876175 0.0299018389 0.231855529 0.0306399295 0.226876175"></polygon>
                </g>
                <g id="Group" transform="translate(23.130744, 59.719492)">
                    <polygon id="Shape" points="0.100470179 0.0109656818 0.100470179 0.0142852508 0.100839224 0.0109656818"></polygon>
                </g>
                <g id="Group" transform="translate(30.705876, 53.669460)">
                    <path d="M0.371181494,0.0374433354 L0.371181494,0.0347876802 L0.371181494,0.0374433354 Z" id="Shape"></path>
                </g>
                <g id="Group" transform="translate(70.176304, 49.888191)">
                    <polygon id="Shape" points="0.387129141 0.296073409 0.387867232 0.298729064 0.387867232 0.296073409"></polygon>
                </g>
                <g id="Group" transform="translate(54.627347, 18.125526)">
                    <path d="M0.717245442,2.94787777 C1.14225025,3.52868078 1.94920121,3.79526028 2.67880607,3.5906936 C2.86180533,3.53964646 3.03443861,3.4602398 3.19351639,3.35625488 C3.989304,2.82309587 4.18625745,1.77417169 3.63127932,1.02018653 C3.30235909,0.570971708 2.75057049,0.302879694 2.15333109,0.302879694 C1.78932604,0.302879694 1.44366078,0.404595846 1.1534136,0.596306214 C0.351246934,1.12833084 0.155090871,2.18368319 0.717245442,2.94787777" id="Shape"></path>
                </g>
                <g id="Group" transform="translate(50.640436, 14.722384)">
                    <path d="M0.162666004,2.14057671 C0.192169151,2.66541693 0.43377601,3.14110065 0.840042328,3.47876802 C1.3750859,3.9427298 2.12023972,4.10229937 2.80798202,3.91134526 C3.17756875,3.80660409 3.50808374,3.60770931 3.76085395,3.33659228 C4.13163675,2.94712152 4.31782554,2.44685955 4.28832239,1.92428809 C4.25762317,1.40171664 4.01561762,0.920739144 3.60456701,0.569837327 C3.24415018,0.263176363 2.75974038,0.0937754857 2.24184054,0.0937754857 C1.63503255,0.0937754857 1.07048583,0.32443293 0.69292528,0.727138141 C0.320547713,1.11320577 0.133960238,1.61384586 0.162666004,2.14057671" id="Shape"></path>
                </g>
                <g id="Group" transform="translate(44.660068, 11.319241)">
                    <path d="M1.60513071,4.5753362 C1.96355409,4.76288717 2.36702957,4.86233456 2.76970766,4.86233456 C2.99935379,4.86233456 3.22899991,4.83095002 3.45186828,4.76818095 C4.06306187,4.59764569 4.56700753,4.21384683 4.86921545,3.68711597 C5.18298541,3.15357883 5.25754066,2.53950065 5.08171785,1.95453825 C4.90469896,1.36768521 4.49843264,0.882926448 3.93707546,0.590634309 C3.60616177,0.41896467 3.22142478,0.327836073 2.82432836,0.327836073 C1.92368497,0.327836073 1.07606751,0.78083217 0.664219515,1.48187955 C0.0326926772,2.57920398 0.453311878,3.9680643 1.60513071,4.5753362" id="Shape"></path>
                </g>
                <g id="Group" transform="translate(37.483627, 9.050479)">
                    <path d="M2.16529183,5.51384731 C2.65448591,5.64241048 3.20109153,5.63976359 3.70543588,5.50061287 C4.63558241,5.23894901 5.3508344,4.55794236 5.61636273,3.67804093 C5.82009392,2.99854678 5.73238186,2.28086181 5.36957288,1.65770859 C5.00636521,1.03758037 4.41032189,0.587609294 3.69028561,0.390605148 C3.46263294,0.329726708 3.22222216,0.29834217 2.97902054,0.29834217 C1.72473807,0.29834217 0.563749336,1.10829012 0.220874917,2.22414277 C-0.191371769,3.6243469 0.679768471,5.10206705 2.16529183,5.51384731" id="Shape"></path>
                </g>
                <g id="Group" transform="translate(28.313729, 8.294225)">
                    <path d="M3.33146354,6.37937992 C3.70782802,6.39904252 4.07263046,6.35593605 4.42866169,6.25686678 C5.75749941,5.88441173 6.69761322,4.7549465 6.7665868,3.44587097 C6.81283498,2.61285728 6.51262051,1.81349689 5.91976672,1.19450306 C5.33448806,0.581937389 4.53710569,0.224229286 3.67393927,0.186416591 L3.51326673,0.182257194 C1.79929332,0.182257194 0.327325463,1.50532342 0.23203827,3.1320256 C0.145920974,4.83775631 1.53655583,6.29581386 3.33146354,6.37937992" id="Shape"></path>
                </g>
                <g id="Group" transform="translate(17.947758, 9.428606)">
                    <path d="M0.142731444,4.45509183 C0.46766476,6.18918206 2.05286091,7.44758858 3.91155922,7.4479667 L3.91195791,7.4479667 C4.1340289,7.4479667 4.35809335,7.42906036 4.57936695,7.39238204 C4.71930756,7.36969442 4.8576534,7.33868801 4.99201233,7.30163157 C6.8570897,6.77906011 8.01169937,5.01320722 7.67520401,3.19366029 C7.34349294,1.46448571 5.75869548,0.207213573 3.907971,0.207213573 C3.68669739,0.207213573 3.46303164,0.225741794 3.24335279,0.262420109 C1.16975994,0.630715767 -0.222868373,2.51151926 0.142731444,4.45509183" id="Shape"></path>
                </g>
                <g id="Group" transform="translate(52.235200, 24.175558)">
                    <path d="M3.7632461,3.329786 C4.13163675,2.94182774 4.31782554,2.43967514 4.28712632,1.91559117 C4.25682579,1.39264159 4.01402285,0.91506724 3.60337093,0.570215454 C3.2385685,0.255613824 2.75256394,0.0839441848 2.23147456,0.0839441848 C1.63024826,0.0839441848 1.0720806,0.311954741 0.702095177,0.708231793 C0.330116301,1.09619005 0.142332753,1.59645202 0.170241136,2.12167036 C0.195358681,2.64197306 0.434174701,3.12105992 0.844029239,3.47347424 C1.22757016,3.79639466 1.71915639,3.9763831 2.22748765,3.97676122 C2.42683325,3.97676122 2.62617884,3.94915796 2.81994275,3.89470767 C3.18315042,3.79374778 3.50848243,3.59825614 3.7632461,3.329786" id="Shape"></path>
                </g>
                <g id="Group" transform="translate(46.254833, 20.772415)">
                    <path d="M5.08251523,1.94357257 C4.90190812,1.35747578 4.49165489,0.870070132 3.92910163,0.575131104 C3.5957958,0.402327084 3.21066012,0.310064106 2.81436108,0.310064106 C1.913319,0.310064106 1.08643348,0.756253917 0.656245691,1.47545139 C0.0310979125,2.57882586 0.458893554,3.96882056 1.61430061,4.56701741 C1.97232529,4.75381212 2.37181386,4.85174701 2.76970766,4.85174701 C2.9985564,4.85174701 3.22780384,4.82036247 3.45027352,4.75834965 C4.06385925,4.58592375 4.56621015,4.20136864 4.86363377,3.67388153 C5.18059326,3.13996626 5.25634459,2.5289131 5.08251523,1.94357257" id="Shape"></path>
                </g>
                <g id="Group" transform="translate(39.078391, 18.503653)">
                    <path d="M5.61676142,3.66026896 C5.81690439,2.98228732 5.72759757,2.26346797 5.3643899,1.63880224 C4.99958746,1.02132092 4.40354414,0.574752977 3.68829216,0.381908228 C3.45625389,0.318761026 3.21544441,0.287376489 2.97104671,0.287376489 C1.71596686,0.287376489 0.560958498,1.09429942 0.226057902,2.20674893 C-0.197750828,3.61338122 0.665415588,5.08618572 2.14974287,5.49115969 C2.65847282,5.62577289 3.20388237,5.62501664 3.71101755,5.48321903 C4.63358896,5.22382393 5.3460501,4.54243915 5.61676142,3.66026896" id="Shape"></path>
                </g>
                <g id="Group" transform="translate(29.908494, 17.747399)">
                    <path d="M6.76499203,3.43188028 C6.81203759,2.60264786 6.51381659,1.80593435 5.92494971,1.18996554 C5.33887366,0.576643612 4.54029522,0.217423001 3.67473666,0.178475924 C3.61652774,0.175450909 3.56031229,0.173938401 3.5052929,0.173938401 C1.8228161,0.173938401 0.32612939,1.51931412 0.236423873,3.11198487 C0.144326209,4.8165812 1.53376499,6.27652939 3.33425438,6.36576735 C3.39764628,6.36917049 3.45984211,6.370683 3.52084186,6.370683 C3.82942884,6.370683 4.13562367,6.32833278 4.43344598,6.24552298 C5.75231642,5.87571481 6.6896394,4.7451152 6.76499203,3.43188028" id="Shape"></path>
                </g>
                <g id="Group" transform="translate(19.542523, 18.881780)">
                    <path d="M3.89720634,0.189819733 C3.6771288,0.189819733 3.4554565,0.208347954 3.23697373,0.245026269 C1.16776648,0.584206151 -0.221672299,2.46765653 0.137548459,4.44299176 C0.31616211,5.39738421 0.875924534,6.22964164 1.71477079,6.78359764 C2.54484584,7.33377236 3.56948218,7.54779222 4.56900098,7.37763509 C4.71811149,7.35305684 4.85805209,7.32091605 4.9979927,7.28272522 C6.85390017,6.76280065 8.00372555,4.99846027 7.67201448,3.17929147 C7.33910734,1.44860438 5.75151904,0.189819733 3.89720634,0.189819733" id="Shape"></path>
                </g>
                <g id="Group" transform="translate(7.980479, 22.663050)">
                    <path d="M0.403874171,6.10712851 C1.10676673,7.67673351 2.71668174,8.69162627 4.5048117,8.69162627 C4.92782305,8.69162627 5.34884094,8.63415097 5.75749941,8.5195785 C5.92654447,8.47269076 6.0971843,8.41370296 6.26503329,8.34639636 C7.37219871,7.89718153 8.22619523,7.07135225 8.66874244,6.02015931 C9.11208704,4.97463827 9.09773416,3.82929171 8.62927202,2.79322384 C7.92677815,1.2258876 6.31287623,0.214019859 4.51597506,0.214019859 C3.91634351,0.214019859 3.3290714,0.3282142 2.76970766,0.55319974 C0.505939114,1.46751073 -0.555775512,3.95898926 0.403874171,6.10712851" id="Shape"></path>
                </g>
                <g id="Group" transform="translate(51.039127, 31.359970)">
                    <path d="M3.6137369,0.415183401 C3.27803893,0.238598111 2.88971371,0.145578879 2.48863038,0.145578879 C1.58998045,0.145578879 0.750336811,0.597818722 0.348854787,1.2973536 C-0.293038021,2.39808117 0.126783797,3.78467273 1.28298823,4.3915665 C1.84833234,4.69444619 2.51135578,4.76515593 3.12773235,4.59197379 C3.73533772,4.42181665 4.24526374,4.03385839 4.56421669,3.50032126 C5.19454745,2.40639996 4.76914396,1.01980841 3.6137369,0.415183401" id="Shape"></path>
                </g>
                <g id="Group" transform="translate(43.463994, 29.091208)">
                    <path d="M0.543416086,4.06978046 C0.905427682,4.68726178 1.50067362,5.1349641 2.21871645,5.33159012 C2.46789844,5.39700608 2.72784509,5.43065938 2.98779174,5.43065938 C3.25890175,5.43065938 3.52722092,5.39398106 3.78517411,5.32213694 C4.71412458,5.06236372 5.42658572,4.38097894 5.69051929,3.49918688 C6.10635419,2.08801707 5.24358647,0.614834435 3.76803039,0.218557382 C3.53280259,0.154275799 3.28960097,0.122135008 3.04281113,0.122135008 C1.7957051,0.122135008 0.6422915,0.927167303 0.301011845,2.03734805 C0.092496355,2.72100159 0.179012342,3.44322409 0.543416086,4.06978046" id="Shape"></path>
                </g>
                <g id="Group" transform="translate(34.294097, 28.334954)">
                    <path d="M6.84911587,3.26399191 C6.93762532,1.55750494 5.54459831,0.0964223744 3.74291285,0.00945317397 L3.58861936,0.00567190438 C1.89896612,0.00567190438 0.399488568,1.3506695 0.314966036,2.94334025 C0.218881461,4.64982721 1.60752286,6.11280041 3.40960702,6.20506339 L3.56988087,6.20846653 C3.88883382,6.20846653 4.20260378,6.16611631 4.50281825,6.081794 C5.82687167,5.71085146 6.76977633,4.57873934 6.84911587,3.26399191" id="Shape"></path>
                </g>
                <g id="Group" transform="translate(23.928126, 29.469335)">
                    <path d="M3.9849184,7.27327205 C4.20499593,7.27327205 4.42746561,7.2543657 4.64594838,7.21806551 C4.78947721,7.19462164 4.92702567,7.1632371 5.06258067,7.12466815 C6.93244233,6.60247482 8.08386247,4.83662193 7.74298151,3.017075 C7.41565605,1.28109414 5.83205466,0.0204188558 3.97694457,0.0204188558 C3.75567097,0.0204188558 3.53160652,0.0389470767 3.31192768,0.0760035187 C1.24232173,0.425392828 -0.143927518,2.31451511 0.221672299,4.28758158 C0.54820038,6.01675617 2.13100439,7.27327205 3.9849184,7.27327205" id="Shape"></path>
                </g>
                <g id="Group" transform="translate(12.366082, 33.250605)">
                    <path d="M8.74130424,5.87193354 C9.18983182,4.81695933 9.17906716,3.66556274 8.71060502,2.62949487 C8.01449021,1.09051815 6.34756236,0.0567190438 4.56262193,0.0567190438 C3.96737599,0.0567190438 3.39086853,0.169400877 2.84904721,0.391361402 C1.74626739,0.830366801 0.89466302,1.64712103 0.44733151,2.69226395 C-0.00398691185,3.74421314 0.00797382371,4.90052538 0.480422878,5.94831519 C1.18610628,7.51565143 2.79921081,8.5278973 4.590929,8.5278973 L4.59132769,8.5278973 C5.01712988,8.5278973 5.44213468,8.46966575 5.85398267,8.35433702 C6.01983821,8.30782741 6.18170683,8.252999 6.34357545,8.18720491 C7.44316574,7.74593075 8.29477011,6.92350461 8.74130424,5.87193354" id="Shape"></path>
                </g>
                <g id="Group" transform="translate(0.405346, 40.056890)">
                    <path d="M9.46373267,2.37841857 C8.47896544,1.09808069 6.89416798,0.333886104 5.22365191,0.333886104 C4.72369316,0.333886104 4.22772133,0.402327084 3.74849452,0.536940281 C3.17677136,0.696509858 2.63813957,0.949098666 2.14695203,1.28790042 C1.02064943,2.06570757 0.281077286,3.21559166 0.064587972,4.52655782 C-0.152300033,5.83714586 0.180208416,7.14735577 1.00071488,8.21669881 C1.98229257,9.49817107 3.56908349,10.2638782 5.24438385,10.2638782 C5.74354522,10.2638782 6.23911836,10.1961934 6.71794647,10.0623365 C7.28847356,9.90352317 7.82590928,9.65169062 8.31510336,9.31515763 C10.6454533,7.6975305 11.1613597,4.58554563 9.46373267,2.37841857" id="Shape"></path>
                </g>
                <g id="Group" transform="translate(62.601171, 58.206984)">
                    <path d="M3.55792014,1.6115771 C3.48017536,0.748313251 2.69913932,0.0710878682 1.78254829,0.0710878682 C1.73111713,0.0710878682 1.67968596,0.07335663 1.6282548,0.0767597726 C0.871538931,0.137638213 0.241606858,0.656050273 0.0609997514,1.36730708 C0.0163463386,1.54351425 0.00239214711,1.72085579 0.0179411033,1.90916301 C0.101267561,2.7659987 0.874728461,3.43944282 1.78015614,3.43944282 C1.83078992,3.43944282 1.8814237,3.43717405 1.93285487,3.43339278 C2.39134973,3.39822698 2.82911265,3.17929147 3.13650356,2.83368343 C3.44828006,2.4854285 3.59778926,2.05096062 3.55792014,1.6115771" id="Shape"></path>
                </g>
                <g id="Group" transform="translate(66.986774, 56.316349)">
                    <path d="M0.420619201,1.62897094 C0.330913684,1.98592279 0.34646264,2.35648721 0.467266069,2.7028515 C0.810937871,3.70564419 1.99983499,4.28606908 3.07191558,3.95596424 C3.56748873,3.8024447 3.99568306,3.4420897 4.2472572,2.97018726 C4.49883134,2.49677231 4.54866773,1.95642888 4.38400827,1.48603895 C4.21735536,0.985020727 3.853749,0.581559262 3.35937193,0.345229913 C3.06992213,0.204188558 2.75057049,0.130453801 2.43440838,0.130453801 C2.21791906,0.130453801 2.0038219,0.164863354 1.79729986,0.231035572 C1.10038767,0.439761653 0.588866881,0.961576856 0.420619201,1.62897094" id="Shape"></path>
                </g>
                <g id="Group" transform="translate(72.169760, 52.913207)">
                    <path d="M0.230443505,1.92390997 C0.0793395459,2.51114113 0.17821496,3.11500989 0.508331261,3.62850629 C0.839244945,4.15334651 1.36192909,4.52126404 1.98388734,4.66835543 C2.17804995,4.71486505 2.37739554,4.73830892 2.5735516,4.73830892 L2.57434898,4.73830892 C3.00493546,4.73830892 3.4283455,4.62487083 3.80072307,4.41047285 C4.89552906,3.78126959 5.28106344,2.31754013 4.62441906,1.27844725 C4.19024436,0.603490626 3.39724759,0.182635321 2.55640788,0.182635321 C2.12422664,0.182635321 1.70001921,0.29342652 1.32923641,0.502908855 C0.772264826,0.822048008 0.381547464,1.32646937 0.230443505,1.92390997" id="Shape"></path>
                </g>
                <g id="Group" transform="translate(76.954054, 47.619429)">
                    <path d="M3.04002029,5.58758207 C3.76643563,5.58758207 4.45657007,5.32251507 4.98284243,4.84153758 C6.0473479,3.86105437 6.07605366,2.10011713 5.04344349,1.07501494 C4.51637375,0.564921676 3.80152045,0.282082711 3.03443861,0.282082711 C2.29725861,0.282082711 1.59875165,0.547149709 1.06689761,1.02774907 C0.697709574,1.37146648 0.434573392,1.81236251 0.309783051,2.29901191 C0.0825290754,3.19479467 0.347260022,4.1223401 1.0178586,4.77952476 C1.5377519,5.28772739 2.23705624,5.57434762 2.98619698,5.58682581 L3.03922291,5.97327157 L3.04002029,5.97327157 L3.04002029,5.58758207 Z" id="Shape"></path>
                </g>
                <g id="Group" transform="translate(81.339657, 40.435017)">
                    <path d="M6.06768115,4.96216008 C7.03091905,3.5528809 6.58637838,1.58435196 5.09886157,0.662478431 C4.57099444,0.340314263 3.95900347,0.169779004 3.33146354,0.169779004 C2.21233739,0.169779004 1.18530889,0.69877862 0.583285204,1.58510821 C0.381547464,1.88080349 0.234430417,2.20372391 0.146319665,2.54706319 C-0.17821496,3.82399793 0.383939611,5.16067673 1.54492834,5.87193354 C2.07757977,6.20052587 2.69196288,6.37408614 3.32109757,6.37408614 C3.55473061,6.37408614 3.79155317,6.35064227 4.02438882,6.3033764 C4.87479712,6.12830362 5.60121246,5.6511074 6.06768115,4.96216008" id="Shape"></path>
                </g>
                <g id="Group" transform="translate(84.130495, 30.981843)">
                    <path d="M5.2918281,0.299098424 C4.87200628,0.154653926 4.43543944,0.0816754231 3.99289222,0.0816754231 C2.38895758,0.0816754231 0.940512506,1.04325228 0.390717362,2.47408469 C0.340880963,2.60113535 0.301011845,2.73045477 0.266724403,2.85939606 C-0.188580931,4.6524741 0.847218769,6.48336483 2.67681262,7.11597123 C3.09105276,7.25663446 3.52482877,7.32847858 3.96418646,7.32847858 C5.57370277,7.32847858 7.02214785,6.36917049 7.56875346,4.94174122 C8.26965257,3.0548877 7.24860444,0.970651903 5.2918281,0.299098424" id="Shape"></path>
                </g>
                <g id="Group" transform="translate(57.816877, 52.913207)">
                    <path d="M0.169842445,1.63577722 C0.0801369283,1.98441028 0.0952871933,2.35005905 0.213299784,2.69264207 C0.383142229,3.19025715 0.749140737,3.59296236 1.24192304,3.82929171 C1.53416368,3.96957681 1.84474411,4.04104281 2.16728528,4.04104281 C2.38536936,4.04104281 2.60345344,4.00701138 2.81515846,3.94083916 C3.31671197,3.788454 3.74729845,3.43036777 3.99927128,2.95770907 C4.25084542,2.48883164 4.30068182,1.95264761 4.13801581,1.48868584 C3.96897075,0.990314505 3.60616177,0.585718659 3.11258208,0.344851786 C2.81834799,0.200785415 2.50378064,0.127050658 2.17645518,0.127050658 C1.9631554,0.127050658 1.74985561,0.159569577 1.54094143,0.223094906 C0.853597828,0.44013978 0.338090125,0.969517522 0.169842445,1.63577722" id="Shape"></path>
                </g>
                <g id="Group" transform="translate(62.601171, 49.510064)">
                    <path d="M2.13299784,4.6623054 C2.74498881,4.80334676 3.41479,4.71032752 3.95820609,4.39875091 C5.06018852,3.76349762 5.43376216,2.32623705 4.77273218,1.25991903 C4.33058366,0.582693643 3.55552799,0.173560274 2.704721,0.173560274 C2.26855284,0.173560274 1.84195328,0.287376489 1.47037309,0.501396347 C0.917388417,0.819779246 0.530259276,1.32041934 0.379554008,1.91407866 C0.230044814,2.50433485 0.32971761,3.11009423 0.662226059,3.61716249 C0.989950213,4.14313709 1.5106409,4.51181087 2.13299784,4.6623054" id="Shape"></path>
                </g>
                <g id="Group" transform="translate(67.385465, 44.216286)">
                    <path d="M3.17876482,5.5796414 C3.91474875,5.5796414 4.60847141,5.31381815 5.13075686,4.83095002 C5.64187896,4.36396323 5.94169474,3.68598159 5.95485154,2.96980913 C5.96800835,2.25098978 5.69171536,1.5597737 5.19654091,1.07463682 C4.66588294,0.554712248 3.95102965,0.268092014 3.1843465,0.268092014 C2.45234948,0.268092014 1.76062027,0.532402758 1.23514529,1.012624 C0.85439521,1.3661727 0.586474734,1.81236251 0.462083084,2.29901191 C0.237619946,3.18609775 0.503148276,4.11213067 1.17374685,4.77687787 C1.69364016,5.28054298 2.39453926,5.56716321 3.14527476,5.5796414 L3.17796744,5.96797779 L3.17876482,5.96797779 L3.17876482,5.5796414 Z" id="Shape"></path>
                </g>
                <g id="Group" transform="translate(71.771068, 37.031874)">
                    <path d="M6.21400081,4.95308503 C6.67727997,4.27888466 6.83157346,3.45532415 6.64777682,2.63176363 C6.46637233,1.81463127 5.95843976,1.09656818 5.25474982,0.662100305 C4.72608531,0.337667374 4.11369565,0.165619608 3.48456096,0.165619608 C2.36822564,0.165619608 1.33920369,0.694241096 0.734389163,1.57905818 C0.530259276,1.87361908 0.383142229,2.19729576 0.294234095,2.54214754 C-0.027908383,3.81076349 0.536638335,5.14592978 1.69762707,5.86474913 C2.23027849,6.1925852 2.84306684,6.36614548 3.469012,6.36614548 C3.70025289,6.36614548 3.93468331,6.3427016 4.16432943,6.29581386 C5.01792726,6.12036295 5.74513998,5.64316673 6.21400081,4.95308503" id="Shape"></path>
                </g>
                <g id="Group" transform="translate(74.561907, 27.578700)">
                    <path d="M2.83190349,7.10727431 C3.24375148,7.24718129 3.67752749,7.31902541 4.11688518,7.31902541 C5.72799626,7.31902541 7.17843479,6.35933919 7.72822994,4.93190992 C8.45265182,3.06282836 7.4268194,0.979348823 5.44372944,0.286998362 C5.02151548,0.141041356 4.58096172,0.0676847256 4.13602236,0.0676847256 C3.57625993,0.0676847256 3.03204646,0.183013448 2.51893091,0.411402131 C1.59436605,0.821669881 0.895460402,1.54918615 0.548599071,2.45933774 C0.496769217,2.59432906 0.455305334,2.7266735 0.420220509,2.86090857 C-0.032293986,4.64302092 1.0043031,6.46975226 2.83190349,7.10727431" id="Shape"></path>
                </g>
                <g id="Group" transform="translate(75.359289, 15.478638)">
                    <path d="M4.23609384,8.79939245 C4.4190931,8.82094569 4.60049759,8.83115512 4.78030731,8.83115512 C7.03091905,8.83115512 8.93546685,7.22978745 9.21136115,5.1054702 C9.50798739,2.78944257 7.76371345,0.671931605 5.32172994,0.385689498 C5.13793331,0.364136261 4.95333929,0.353926833 4.77113741,0.353926833 C2.70511969,0.353926833 0.925760932,1.67926182 0.442945907,3.57708103 C0.401083332,3.73967562 0.36998542,3.90945463 0.347260022,4.08112426 C0.203332505,5.21361451 0.531056659,6.32908903 1.27023012,7.21882177 C2.00182844,8.10401698 3.05556924,8.66553551 4.23609384,8.79939245" id="Shape"></path>
                </g>
                <g id="Group" transform="translate(51.039127, 47.997556)">
                    <path d="M4.84170575,2.94447463 C4.99520186,2.34930279 4.90390158,1.73030896 4.590929,1.24517207 C4.15795037,0.563409168 3.36933921,0.141041356 2.52889819,0.141041356 C2.09591956,0.141041356 1.67011738,0.253345062 1.29773981,0.466608667 C0.735585237,0.78196655 0.344867875,1.2833629 0.193763916,1.88042537 C0.0450521039,2.46425339 0.143927518,3.07757532 0.471651672,3.60544055 C0.908617211,4.28569095 1.67848989,4.69482432 2.52889819,4.69482432 C2.96426896,4.69482432 3.39166591,4.58176436 3.76484086,4.36850075 C4.29270799,4.06788982 4.68502012,3.54872151 4.84170575,2.94447463" id="Shape"></path>
                </g>
                <g id="Group" transform="translate(55.823421, 42.703779)">
                    <path d="M3.00254332,5.54107245 L3.0033407,5.54107245 C3.73454033,5.54107245 4.42308001,5.27751796 4.94137855,4.79880923 C6.0154526,3.82021666 6.04894266,2.06646383 5.01473773,1.04287415 C4.49364835,0.530133996 3.79195186,0.238598111 3.03683076,0.224229286 L3.03603338,0.224229286 C2.26735677,0.224229286 1.57522887,0.488918157 1.04656436,0.970273776 C0.667409044,1.32495686 0.397893803,1.77379356 0.27230608,2.26195547 C0.0458494863,3.15433509 0.312175198,4.08112426 0.984767228,4.73982143 C1.51821603,5.25596472 2.23546148,5.54107245 3.00254332,5.54107245" id="Shape"></path>
                </g>
                <g id="Group" transform="translate(60.209024, 35.519366)">
                    <path d="M1.51143828,5.83790211 C2.03850803,6.16082254 2.65129638,6.33249218 3.28043107,6.33249218 C4.39955723,6.33249218 5.42977525,5.80160193 6.03578585,4.91413795 C6.98108266,3.52792452 6.53016292,1.52649853 5.07095319,0.631093894 C4.54069391,0.303635948 3.92710818,0.130831928 3.29637872,0.130831928 C2.18123947,0.130831928 1.15261622,0.658697162 0.54501085,1.54275799 C0.342475728,1.84034391 0.196156063,2.16402058 0.110437458,2.50244421 C-0.212502402,3.77484143 0.34965217,5.1153015 1.51143828,5.83790211" id="Shape"></path>
                </g>
                <g id="Group" transform="translate(62.999862, 26.066192)">
                    <path d="M5.24597862,0.254479443 C4.83014371,0.11192558 4.39557032,0.0397033307 3.95501656,0.0397033307 C2.35227799,0.0397033307 0.906225064,0.997877044 0.357227302,2.42341568 C0.307390904,2.55197884 0.267123094,2.67978576 0.235227799,2.81023956 C-0.222868373,4.60861137 0.813728709,6.4379896 2.64531601,7.06832724 C3.06394176,7.21163735 3.50170468,7.28461586 3.94385321,7.28461586 C5.55137606,7.28461586 6.99862507,6.32568589 7.54642676,4.89787849 C8.26167874,3.02388129 7.23026465,0.940401746 5.24597862,0.254479443" id="Shape"></path>
                </g>
                <g id="Group" transform="translate(63.797245, 13.966130)">
                    <path d="M5.13075686,0.349767437 C4.94855499,0.328592327 4.7671505,0.318761026 4.58893554,0.318761026 C2.51733614,0.318761026 0.732794399,1.65165856 0.246789844,3.56044344 C0.206123343,3.72001302 0.17502543,3.87920447 0.155090871,4.0436897 C0.00837251489,5.17050803 0.334103213,6.28068878 1.07048583,7.17193402 C1.80886191,8.06809492 2.86619093,8.63528535 4.04751291,8.7691423 C4.22054489,8.7888049 4.39397555,8.7986362 4.56621015,8.7986362 C6.80805068,8.7986362 8.76402964,7.16285898 9.02038807,5.07408566 C9.17069465,3.94802357 8.85054562,2.84011159 8.12014337,1.95037885 C7.38655159,1.05421796 6.32443827,0.485893142 5.13075686,0.349767437" id="Shape"></path>
                </g>
                <g id="Group" transform="translate(61.405098, 0.353559)">
                    <path d="M5.49755275,9.92658892 C5.68214677,9.92658892 5.86913294,9.91751387 6.0565178,9.8982294 C8.25569837,9.67437824 10.0801092,8.15846726 10.5956169,6.12565673 C10.7359562,5.57586013 10.7738319,5.00640093 10.7108387,4.43467297 C10.4273693,1.90689425 8.19270517,0 5.51230433,0 C5.32850769,0 5.14391367,0.00907504701 4.9573262,0.0279813949 C2.75734824,0.246538777 0.931342609,1.76320601 0.411847994,3.80131031 C0.272704771,4.35451006 0.234430417,4.92207862 0.297423624,5.4870003 C0.585677351,8.0174259 2.82113883,9.92658892 5.49755275,9.92658892" id="Shape"></path>
                </g>
                <g id="Group" transform="translate(22.333361, 44.216286)">
                    <path d="M3.08188286,0.827719912 C2.94313833,0.702938016 2.78844615,0.603112499 2.60903512,0.521815203 C2.37859161,0.421611559 2.12861224,0.369051912 1.87026035,0.369051912 C1.17972722,0.369051912 0.546605615,0.74717887 0.258351888,1.33214128 C0.0621958249,1.72652769 0.0426599568,2.19616138 0.204129887,2.6215542 C0.367194582,3.0507283 0.689337059,3.39104256 1.11075364,3.57859354 C1.34598144,3.68295658 1.59715689,3.73589435 1.85670485,3.73589435 L1.85710354,3.73589435 C2.54803537,3.73589435 3.18354911,3.353608 3.47578975,2.76108305 C3.799527,2.10919218 3.6408479,1.33214128 3.08188286,0.827719912" id="Shape"></path>
                </g>
                <g id="Group" transform="translate(20.738597, 49.131937)">
                    <path d="M2.79004091,0.127806912 C2.64332256,0.0983130092 2.49859766,0.0835660579 2.35427145,0.0835660579 C1.38983747,0.0835660579 0.543017394,0.736969442 0.340482272,1.63880224 C0.233633035,2.12242662 0.348057405,2.65596376 0.654650926,3.09875043 C0.960845757,3.54115897 1.42890921,3.85235745 1.94003131,3.95104859 C2.49142122,4.06788982 3.03244516,3.96579554 3.496123,3.68068782 C3.95980085,3.39368945 4.27357082,2.95770907 4.37922398,2.45328771 C4.536707,1.77757483 4.31583208,1.09619005 3.7903571,0.622018847 C3.50848243,0.370942546 3.1616211,0.198516653 2.79004091,0.127806912" id="Shape"></path>
                </g>
                <g id="Group" transform="translate(20.738597, 54.425714)">
                    <path d="M2.52650604,4.91716297 C3.84378172,4.88842532 4.90150943,3.84781993 4.88117618,2.59811033 C4.86841806,1.98138526 4.60288973,1.40776667 4.13363021,0.985398854 C3.68869085,0.583449897 3.10899386,0.361867499 2.50178719,0.361867499 C1.79371164,0.370942546 1.19527617,0.615968816 0.749140737,1.05232733 C0.302207918,1.49171085 0.0629932073,2.06873259 0.0761500164,2.67411385 C0.104457091,3.86937317 1.23315184,4.91716297 2.49301598,4.91716297 L2.49261729,5.3047431 L2.49301598,5.3047431 L2.52650604,4.91716297 Z" id="Shape"></path>
                </g>
                <g id="Group" transform="translate(21.934670, 60.853873)">
                    <path d="M3.11975853,5.58266642 C3.33186224,5.58266642 3.54316856,5.55846629 3.74650107,5.51120042 C5.23162573,5.14971105 6.14582462,3.69505664 5.77942742,2.26951801 C5.6494541,1.79459055 5.3779454,1.35747578 4.99639793,1.01111149 C4.46733473,0.536184027 3.77879505,0.273385791 3.05995485,0.273385791 C2.83030872,0.273385791 2.60026391,0.299854678 2.37619946,0.353170579 C1.65377104,0.525218346 1.04178007,0.956661205 0.653853544,1.56733624 C0.270312624,2.17347376 0.157483018,2.88851184 0.337691434,3.5767029 C0.6422915,4.71940257 1.83796636,5.58191016 3.11975853,5.58266642" id="Shape"></path>
                </g>
                <g id="Group" transform="translate(25.522891, 67.660158)">
                    <path d="M4.87559451,6.15136936 C6.47753569,5.36940281 7.11344813,3.49918688 6.2913469,1.9832759 C6.12190315,1.66867427 5.90062954,1.38545718 5.63151299,1.14345592 C5.02191417,0.59176869 4.21934881,0.288888996 3.37372481,0.288888996 C2.86100795,0.288888996 2.34988585,0.405730227 1.8949792,0.62655637 C1.1127471,1.00619584 0.531854041,1.65354919 0.2623388,2.44912831 C-0.00398691185,3.23563238 0.0677775015,4.07015858 0.465272613,4.7984311 C1.01427038,5.81748326 2.17765125,6.47466791 3.43033896,6.47466791 C3.94305582,6.47466791 4.42945907,6.36614548 4.87559451,6.15136936" id="Shape"></path>
                </g>
                <g id="Group" transform="translate(31.503259, 74.466443)">
                    <path d="M6.83157346,1.59153637 C6.74027318,1.4867952 6.64179646,1.38923845 6.5401302,1.29546296 C5.82806775,0.654159638 4.89233954,0.299098424 3.907971,0.299098424 C3.01171321,0.299098424 2.13857952,0.601221864 1.44964115,1.14837157 C-0.153894798,2.43854076 -0.361214214,4.72885574 0.989551522,6.25459802 C1.72912367,7.07210851 2.80359642,7.5432547 3.93548069,7.5432547 C4.82655549,7.5432547 5.68972191,7.24566878 6.36749692,6.70381285 C7.97820931,5.41780306 8.18632611,3.12408493 6.83157346,1.59153637" id="Shape"></path>
                </g>
                <g id="Group" transform="translate(28.712420, 43.081906)">
                    <path d="M2.64212649,0.141041356 C2.50098981,0.112303707 2.35626491,0.0990692632 2.21353346,0.0990692632 C1.81683573,0.0990692632 1.42771313,0.209104208 1.08802824,0.417830289 C0.627141235,0.70369427 0.312573889,1.14232154 0.202933813,1.65430544 C0.0909015903,2.1432236 0.20173774,2.67562636 0.506736497,3.11954741 C0.809343106,3.56044344 1.27302095,3.86975129 1.77896007,3.96730805 C2.3295526,4.08112426 2.8721713,3.97978624 3.33624784,3.69694727 C3.79793223,3.41637707 4.11648649,2.98001856 4.23449908,2.46803466 C4.38002136,1.79459055 4.15436215,1.10791199 3.63008324,0.634497037 C3.35538502,0.386823879 3.01410536,0.21628862 2.64212649,0.141041356" id="Shape"></path>
                </g>
                <g id="Group" transform="translate(28.313729, 48.753810)">
                    <path d="M2.78366186,4.56172363 C4.10412706,4.52391093 5.15986132,3.47687738 5.12796603,2.22792404 C5.11441053,1.61573649 4.85007827,1.0477898 4.38440697,0.626934497 C3.94026498,0.227254302 3.36575099,0.0064281583 2.76452468,0.0064281583 L2.67880607,0.00794066613 C2.04329232,0.0147469514 1.44645162,0.257504459 0.998322728,0.692728588 C0.553383365,1.13438088 0.313769963,1.71480576 0.32612939,2.3254808 C0.353639081,3.5373777 1.4699744,4.56172363 2.76332861,4.56172363 L2.76292991,4.95006002 L2.78366186,4.56172363 Z" id="Shape"></path>
                </g>
                <g id="Group" transform="translate(29.908494, 54.803841)">
                    <path d="M0.50115482,1.59229262 C0.120404738,2.20145515 0.00956858845,2.91422447 0.191371769,3.59674363 C0.491984923,4.74133393 1.68167942,5.60308527 2.95948467,5.60308527 C3.17318314,5.60308527 3.38488816,5.57888515 3.58941674,5.53010677 C5.08490738,5.1742893 5.99870757,3.72795368 5.62593132,2.30808696 C5.49396453,1.81841254 5.22205715,1.376004 4.83811753,1.02963971 C4.31343993,0.55698101 3.62609633,0.296073409 2.9036679,0.296073409 C2.67481916,0.296073409 2.44557173,0.322920423 2.22110859,0.375101943 C1.5018697,0.549418471 0.889480034,0.981617585 0.50115482,1.59229262" id="Shape"></path>
                </g>
                <g id="Group" transform="translate(33.098023, 61.610127)">
                    <path d="M0.516305085,2.46085025 C0.249580682,3.24886683 0.320946404,4.08490553 0.717245442,4.81393431 C1.26225629,5.83525523 2.42523848,6.49319613 3.68111571,6.49319613 L3.68151441,6.49319613 C4.18426399,6.49319613 4.68023582,6.38240493 5.11480922,6.17254447 C6.71834516,5.3958717 7.35625106,3.52376513 6.53773806,2.00066974 C6.36988907,1.68606811 6.14781808,1.40247289 5.87670807,1.15669037 C5.27269093,0.612187546 4.47451117,0.311576614 3.63048193,0.311576614 C3.1161703,0.311576614 2.60145998,0.428417844 2.14336381,0.648487734 C1.36192909,1.02510218 0.784225562,1.6690524 0.516305085,2.46085025" id="Shape"></path>
                </g>
                <g id="Group" transform="translate(39.078391, 68.416412)">
                    <path d="M7.08195153,1.62103027 C6.98467088,1.50948282 6.88340331,1.4096573 6.77814884,1.31247867 C6.07206675,0.676469129 5.14072414,0.32329855 4.15954514,0.32329855 C3.26328735,0.32329855 2.38895758,0.624665736 1.69722838,1.17143732 C0.0964832669,2.4616065 -0.112032223,4.75532463 1.23554398,6.28106691 C1.96036456,7.10538368 3.02287657,7.57728612 4.15077393,7.57728612 C5.04822779,7.57728612 5.92455101,7.27591894 6.61787499,6.72876923 C7.40090447,6.10372537 7.88092866,5.22722708 7.96784334,4.26186895 C8.0555554,3.29877959 7.74058936,2.36178098 7.08195153,1.62103027" id="Shape"></path>
                </g>
                <g id="Group" transform="translate(48.248289, 74.844570)">
                    <path d="M7.59546577,1.25122211 C7.46868197,1.13740589 7.32914006,1.02585844 7.1828204,0.921117271 C6.39620269,0.361867499 5.46725222,0.0657940908 4.49843264,0.0657940908 C4.28513286,0.0657940908 4.07103569,0.0805410422 3.85614114,0.110034945 C2.6819956,0.268848268 1.64300637,0.853810673 0.929747844,1.75639972 C0.216489314,2.6552075 -0.0865159872,3.76576638 0.0765487076,4.88313154 C0.240012094,6.00805925 0.85758474,7.00366753 1.81524097,7.68732107 C2.59388485,8.24354582 3.52124055,8.5377286 4.49643919,8.5377286 C5.91577981,8.5377286 7.2187026,7.92365042 8.06950959,6.85506363 C9.43462821,5.13647661 9.23089701,2.72742975 7.59546577,1.25122211" id="Shape"></path>
                </g>
                <g id="Group" transform="translate(35.888862, 39.678763)">
                    <path d="M2.47587226,4.75608089 C3.80152045,4.73263701 4.85884948,3.69467851 4.83373193,2.44080952 C4.82735287,1.82219381 4.56461538,1.2497096 4.09535586,0.826585532 C3.6408479,0.417074035 3.04002029,0.192088495 2.40211439,0.192088495 C1.06570154,0.221204271 0.0119607356,1.2637003 0.0374769714,2.5149224 C0.0598036778,3.70942546 1.17414554,4.75683714 2.42204895,4.75683714 L2.42204895,5.14214851 L2.42284633,5.14214851 L2.47587226,4.75608089 Z" id="Shape"></path>
                </g>
                <g id="Group" transform="translate(37.084935, 46.106921)">
                    <path d="M0.301011845,3.41486456 C0.599232852,4.56096737 1.78972473,5.42347497 3.0711182,5.42347497 C3.28282322,5.42347497 3.49253478,5.4000311 3.69467121,5.35352148 C4.42387739,5.18222997 5.04065266,4.75078711 5.42937656,4.13935582 C5.81172141,3.53284017 5.92415232,2.81969273 5.7443426,2.13074541 C5.61038236,1.641071 5.33608282,1.1963937 4.95174452,0.849273149 C4.42746561,0.374345689 3.74171677,0.113816215 3.02287657,0.113816215 C2.79203437,0.113816215 2.56079348,0.141041356 2.33513427,0.194735384 C0.838447563,0.560384153 -0.075352634,2.00558539 0.301011845,3.41486456" id="Shape"></path>
                </g>
                <g id="Group" transform="translate(40.673156, 52.913207)">
                    <path d="M0.428991715,4.64453343 C0.975996022,5.65866994 2.13778214,6.31358583 3.38887508,6.31358583 L3.38927377,6.31358583 C3.89282073,6.31358583 4.38839388,6.20279463 4.82256858,5.99217791 C6.42809798,5.21853016 7.06879472,3.34755796 6.25227517,1.82030318 C6.08163534,1.50570155 5.85916566,1.22361884 5.59283995,0.982751965 C4.98363982,0.433333495 4.18107446,0.130453801 3.33305831,0.130453801 C2.81954406,0.130453801 2.30602982,0.247295031 1.84793364,0.466608667 C0.243999005,1.24592833 -0.3935082,3.12105992 0.428991715,4.64453343" id="Shape"></path>
                </g>
                <g id="Group" transform="translate(46.653524, 59.719492)">
                    <path d="M0.943702036,6.10523787 C1.67091476,6.92426087 2.73302808,7.39540706 3.85853329,7.39540706 C4.75997406,7.39540706 5.63908813,7.09101485 6.33440555,6.53857137 C7.93953626,5.25445222 8.14805175,2.96640599 6.79888078,1.4376387 C6.70678312,1.33516629 6.60950247,1.23685328 6.50664014,1.14534656 C5.79019208,0.497615078 4.85526126,0.142175736 3.87248748,0.142175736 C2.97543232,0.142175736 2.10150124,0.44505543 1.41256287,0.994473901 C-0.19854821,2.28464308 -0.409455847,4.57722683 0.943702036,6.10523787" id="Shape"></path>
                </g>
                <g id="Group" transform="translate(55.424730, 65.769523)">
                    <path d="M8.18393396,7.05131152 C9.54586305,5.32818697 9.33495541,2.91346822 7.69394249,1.43423555 C7.56875346,1.32117559 7.43957752,1.21530004 7.29844084,1.11660891 C6.51581004,0.556602883 5.59004911,0.260529474 4.62003346,0.260529474 C4.40872713,0.260529474 4.19622473,0.275276426 3.98372232,0.303257821 C2.79681867,0.46131489 1.75105169,1.04703355 1.03779316,1.95113511 C0.326926772,2.85334603 0.0318952948,3.97751748 0.206123343,5.11643588 C0.379155317,6.24098545 0.989551522,7.22411554 1.92567843,7.88356896 C2.71030268,8.44849064 3.63725968,8.74607655 4.60807272,8.74607655 C4.81379737,8.74607655 5.01992071,8.73284211 5.22724013,8.70561697 C6.41254902,8.55134117 7.46190422,7.96335375 8.18393396,7.05131152" id="Shape"></path>
                </g>
                <g id="Group" transform="translate(67.385465, 70.685174)">
                    <path d="M9.05706766,1.376004 C8.62408903,0.985776981 8.12572505,0.670040971 7.57433514,0.435980383 C6.90413526,0.154653926 6.19287018,0.0128563166 5.46326531,0.0128563166 C3.38728031,0.0128563166 1.50545792,1.17030294 0.667409044,2.96149034 C-0.228051358,4.88124091 0.244397697,7.1379026 1.84235197,8.5770538 C2.27214107,8.96425581 2.77289719,9.27999182 3.33066616,9.51783368 C4.00006866,9.79953826 4.71053635,9.9432265 5.44014122,9.9432265 C7.51134193,9.9432265 9.39117087,8.78577988 10.2304158,6.99383623 C11.1306605,5.07824505 10.6598062,2.82007086 9.05706766,1.376004" id="Shape"></path>
                </g>
            </g>
        </g>
    </g>
</svg>